HIERARCHY
ROOT Hips
{
    OFFSET   0.000000   0.000000   0.000000
    CHANNELS 6 Xposition Yposition Zposition Zrotation Xrotation Yrotation
    JOINT Chest
    {
        OFFSET   0.000000   8.007230   0.000000
        CHANNELS 3 Zrotation Xrotation Yrotation
        JOINT Chest2
        {
            OFFSET   0.000000  22.077100   0.000000
            CHANNELS 3 Zrotation Xrotation Yrotation
            JOINT Neck
            {
                OFFSET   0.000000  23.254800  -0.000021
                CHANNELS 3 Zrotation Xrotation Yrotation
                JOINT Head
                {
                    OFFSET   0.000000  14.370000   1.956610
                    CHANNELS 3 Zrotation Xrotation Yrotation
                    End Site
                    {
                        OFFSET   0.000000  19.566000   0.000000
                    }
                }
            }
            JOINT LeftCollar
            {
                OFFSET   3.911900  19.017000  -0.467063
                CHANNELS 3 Zrotation Xrotation Yrotation
                JOINT LeftShoulder
                {
                    OFFSET  10.383700   0.000000   0.000000
                    CHANNELS 3 Zrotation Xrotation Yrotation
                    JOINT LeftElbow
                    {
                        OFFSET  26.662100   0.001529   0.000325
                        CHANNELS 3 Zrotation Xrotation Yrotation
                        JOINT LeftWrist
                        {
                            OFFSET  28.869000  -0.000011  -0.000096
                            CHANNELS 3 Zrotation Xrotation Yrotation
                            JOINT LeftFinger0
                            {
                                OFFSET   2.044650  -2.323460   3.252850
                                CHANNELS 3 Zrotation Xrotation Yrotation
                                JOINT LeftFinger01
                                {
                                    OFFSET   3.088130   0.000000   0.000000
                                    CHANNELS 3 Zrotation Xrotation Yrotation
                                    JOINT LeftFinger02
                                    {
                                        OFFSET   2.639460   0.000000   0.000000
                                        CHANNELS 3 Zrotation Xrotation Yrotation
                                        End Site
                                        {
                                            OFFSET   2.582190   0.000000   0.000000
                                        }
                                    }
                                }
                            }
                            JOINT LeftFinger1
                            {
                                OFFSET   8.364480   0.000000   3.252850
                                CHANNELS 3 Zrotation Xrotation Yrotation
                                JOINT LeftFinger11
                                {
                                    OFFSET   4.646930   0.000000   0.000000
                                    CHANNELS 3 Zrotation Xrotation Yrotation
                                    JOINT LeftFinger12
                                    {
                                        OFFSET   2.323460   0.000000   0.000000
                                        CHANNELS 3 Zrotation Xrotation Yrotation
                                        End Site
                                        {
                                            OFFSET   2.273050   0.000000   0.000000
                                        }
                                    }
                                }
                            }
                            JOINT LeftFinger2
                            {
                                OFFSET   8.364480   0.000016   1.078090
                                CHANNELS 3 Zrotation Xrotation Yrotation
                                JOINT LeftFinger21
                                {
                                    OFFSET   5.111620   0.000000   0.000000
                                    CHANNELS 3 Zrotation Xrotation Yrotation
                                    JOINT LeftFinger22
                                    {
                                        OFFSET   2.788160   0.000017   0.000000
                                        CHANNELS 3 Zrotation Xrotation Yrotation
                                        End Site
                                        {
                                            OFFSET   2.727660   0.000000   0.000000
                                        }
                                    }
                                }
                            }
                            JOINT LeftFinger3
                            {
                                OFFSET   7.899780   0.000015  -1.078090
                                CHANNELS 3 Zrotation Xrotation Yrotation
                                JOINT LeftFinger31
                                {
                                    OFFSET   4.646920   0.000000   0.000000
                                    CHANNELS 3 Zrotation Xrotation Yrotation
                                    JOINT LeftFinger32
                                    {
                                        OFFSET   2.323470   0.000000   0.000000
                                        CHANNELS 3 Zrotation Xrotation Yrotation
                                        End Site
                                        {
                                            OFFSET   2.273050   0.000000   0.000000
                                        }
                                    }
                                }
                            }
                            JOINT LeftFinger4
                            {
                                OFFSET   7.435090   0.000000  -3.252850
                                CHANNELS 3 Zrotation Xrotation Yrotation
                                JOINT LeftFinger41
                                {
                                    OFFSET   3.717550   0.000000   0.000000
                                    CHANNELS 3 Zrotation Xrotation Yrotation
                                    JOINT LeftFinger42
                                    {
                                        OFFSET   1.858760   0.000000   0.000000
                                        CHANNELS 3 Zrotation Xrotation Yrotation
                                        End Site
                                        {
                                            OFFSET   1.818440   0.000000   0.000000
                                        }
                                    }
                                }
                            }
                        }
                    }
                }
            }
            JOINT RightCollar
            {
                OFFSET  -3.911900  19.017000  -0.467062
                CHANNELS 3 Zrotation Xrotation Yrotation
                JOINT RightShoulder
                {
                    OFFSET -10.383700   0.000015   0.000000
                    CHANNELS 3 Zrotation Xrotation Yrotation
                    JOINT RightElbow
                    {
                        OFFSET -26.662100   0.001341   0.000385
                        CHANNELS 3 Zrotation Xrotation Yrotation
                        JOINT RightWrist
                        {
                            OFFSET -28.869000   0.000025  -0.000080
                            CHANNELS 3 Zrotation Xrotation Yrotation
                            JOINT RightFinger0
                            {
                                OFFSET  -2.044650  -2.323490   3.252850
                                CHANNELS 3 Zrotation Xrotation Yrotation
                                JOINT RightFinger01
                                {
                                    OFFSET  -3.088130   0.000000   0.000000
                                    CHANNELS 3 Zrotation Xrotation Yrotation
                                    JOINT RightFinger02
                                    {
                                        OFFSET  -2.639460   0.000000   0.000000
                                        CHANNELS 3 Zrotation Xrotation Yrotation
                                        End Site
                                        {
                                            OFFSET  -2.582190   0.000000   0.000000
                                        }
                                    }
                                }
                            }
                            JOINT RightFinger1
                            {
                                OFFSET  -8.364480   0.000000   3.252850
                                CHANNELS 3 Zrotation Xrotation Yrotation
                                JOINT RightFinger11
                                {
                                    OFFSET  -4.646930   0.000000   0.000000
                                    CHANNELS 3 Zrotation Xrotation Yrotation
                                    JOINT RightFinger12
                                    {
                                        OFFSET  -2.323470   0.000000   0.000000
                                        CHANNELS 3 Zrotation Xrotation Yrotation
                                        End Site
                                        {
                                            OFFSET  -2.273050   0.000000   0.000000
                                        }
                                    }
                                }
                            }
                            JOINT RightFinger2
                            {
                                OFFSET  -8.364480   0.000000   1.078090
                                CHANNELS 3 Zrotation Xrotation Yrotation
                                JOINT RightFinger21
                                {
                                    OFFSET  -5.111610   0.000000   0.000000
                                    CHANNELS 3 Zrotation Xrotation Yrotation
                                    JOINT RightFinger22
                                    {
                                        OFFSET  -2.788160   0.000000   0.000000
                                        CHANNELS 3 Zrotation Xrotation Yrotation
                                        End Site
                                        {
                                            OFFSET  -2.727660   0.000000   0.000000
                                        }
                                    }
                                }
                            }
                            JOINT RightFinger3
                            {
                                OFFSET  -7.899780   0.000000  -1.078090
                                CHANNELS 3 Zrotation Xrotation Yrotation
                                JOINT RightFinger31
                                {
                                    OFFSET  -4.646920   0.000000   0.000000
                                    CHANNELS 3 Zrotation Xrotation Yrotation
                                    JOINT RightFinger32
                                    {
                                        OFFSET  -2.323470   0.000000   0.000000
                                        CHANNELS 3 Zrotation Xrotation Yrotation
                                        End Site
                                        {
                                            OFFSET  -2.273050   0.000000   0.000000
                                        }
                                    }
                                }
                            }
                            JOINT RightFinger4
                            {
                                OFFSET  -7.435090   0.000000  -3.252850
                                CHANNELS 3 Zrotation Xrotation Yrotation
                                JOINT RightFinger41
                                {
                                    OFFSET  -3.717550   0.000000   0.000000
                                    CHANNELS 3 Zrotation Xrotation Yrotation
                                    JOINT RightFinger42
                                    {
                                        OFFSET  -1.858770   0.000000   0.000000
                                        CHANNELS 3 Zrotation Xrotation Yrotation
                                        End Site
                                        {
                                            OFFSET  -1.818440   0.000000   0.000000
                                        }
                                    }
                                }
                            }
                        }
                    }
                }
            }
        }
    }
    JOINT LeftHip
    {
        OFFSET   9.783010   0.000000   0.000000
        CHANNELS 3 Zrotation Xrotation Yrotation
        JOINT LeftKnee
        {
            OFFSET   0.000070 -41.789100   0.000028
            CHANNELS 3 Zrotation Xrotation Yrotation
            JOINT LeftAnkle
            {
                OFFSET   0.000087 -41.133200  -0.000100
                CHANNELS 3 Zrotation Xrotation Yrotation
                JOINT LeftToe
                {
                    OFFSET   0.000000  -6.358960  14.674500
                    CHANNELS 3 Zrotation Xrotation Yrotation
                    End Site
                    {
                        OFFSET   0.000000   0.000000   3.913200
                    }
                }
            }
        }
    }
    JOINT RightHip
    {
        OFFSET  -9.783020   0.000000   0.000000
        CHANNELS 3 Zrotation Xrotation Yrotation
        JOINT RightKnee
        {
            OFFSET   0.000044 -41.789100  -0.000870
            CHANNELS 3 Zrotation Xrotation Yrotation
            JOINT RightAnkle
            {
                OFFSET  -0.000090 -41.133200  -0.000245
                CHANNELS 3 Zrotation Xrotation Yrotation
                JOINT RightToe
                {
                    OFFSET   0.000000  -6.358960  14.674500
                    CHANNELS 3 Zrotation Xrotation Yrotation
                    End Site
                    {
                        OFFSET   0.000000   0.000000   3.913200
                    }
                }
            }
        }
    }
}
MOTION
Frames: 4
Frame Time:   0.016667
  1.949700  89.157000  -1.819960  -1.411240 -19.707300  -7.145870   1.804820  10.858800  -1.561440   4.027970  21.656800  -3.576590  -0.428417   2.560740   0.015905  -0.705844   5.190690   0.383521  -9.322590  -5.694670   7.135660 -62.027700   7.147830 -45.507400  -1.229120 -16.101100 -75.409500 -40.234000 -62.370000 -33.081500  70.401000  49.146100 -87.632800 -20.103300  -0.026564   0.052259  -5.051650  -0.015453   0.024857 -21.178300  -1.104050   3.018570 -17.340900   0.079163  -0.035722 -12.138600   0.059761  -0.011104 -62.191800  -3.604480   1.831750 -60.716400  -0.034163  -0.059611 -45.874400   0.012975  -0.084870 -49.878200  -6.181680   5.183470 -55.052400  -0.029698  -0.026179 -40.066000  -0.012969  -0.075426 -24.839300 -11.726600  23.693100 -41.000000   0.070337   0.005244 -27.306000   0.039074   0.025950   8.015590  -2.393010  13.344700  59.529700   8.131920  50.868700  -7.527500 -17.006500  68.741400  33.828800 -63.267400  37.031100 -50.336800  42.294800  85.244400   2.416990   0.014539  -0.000559  -3.791480   0.006362   0.023181  27.479500   5.597950  10.647600  22.867200  -0.025887  -0.001512  16.007000  -0.016789   0.007289  75.452500  -0.328968   0.037205  75.430400   0.027955   0.186847  56.572800   0.124305   0.068353  73.175900  -5.098560  -1.442040  73.228300   0.015675   0.161558  54.921200   0.102126   0.066116  24.612000  -5.568570 -11.988100  37.780700   0.013018  -0.004904  25.162000   0.006068  -0.006824   0.437394  20.632700   2.318430  -0.919021   3.769350  16.716300  -2.001880  -5.124340   5.508670  -0.000000   0.000000  -0.000000  -3.388840  11.997600  -1.444400  -3.935640  15.584600 -10.037800   4.198490  -8.271600   3.288830   0.000000   0.000000  -0.000000
  1.811750  89.186300  -1.801280  -1.336570 -19.220000  -6.755730   1.790360  10.625400  -1.567540   3.988150  21.190600  -3.573740  -0.536055   2.307080   0.016482  -0.882190   4.675390   0.802994  -9.218080  -5.650510   7.136220 -60.849100   7.804030 -43.864500  -0.235404 -15.756900 -75.334700 -33.616500 -61.573400 -27.626600  67.919100  48.366200 -85.746800 -20.499600   0.042360   0.049641  -5.249940   0.027743  -0.044649 -23.041300  -1.133630   2.940720 -18.851600   0.106200  -0.035137 -13.196100   0.077810  -0.006551 -56.573200  -3.438480   2.188550 -55.443300  -0.010330  -0.010301 -41.671900  -0.002006  -0.058557 -41.304200  -5.872180   6.514690 -54.087700  -0.024475  -0.009895 -37.450800  -0.019527  -0.055273 -26.284500 -11.970700  22.768100 -43.101500   0.091044   0.013396 -28.705600   0.047163   0.039204   8.378330  -2.531010  13.528100  58.783200   7.981390  48.457400  -8.066230 -16.418900  68.142900  32.839200 -62.151300  35.797800 -50.562600  42.401500  85.223900   4.341770   0.030524  -0.001956  -2.829080   0.011948   0.036193  27.557500   5.043050   9.569880  22.811500  -0.057559  -0.001471  15.968000  -0.037765   0.013030  71.810600  -0.825136  -0.101222  72.121700   0.003433   0.279836  54.005700   0.157813   0.130250  69.881100  -5.433070  -1.859520  70.243500  -0.011385   0.239071  52.609000   0.126278   0.121001  24.996500  -5.728900 -12.113800  38.386300   0.009038  -0.003394  25.565300   0.004273  -0.004533   0.670729  20.137000   2.246590  -0.902288   3.718360  16.499900  -2.080370  -5.021760   5.375140  -0.000000   0.000000   0.000000  -3.246380  11.823300  -1.477270  -3.802290  15.155200 -10.265000   4.121510  -8.207360   3.081770   0.000000   0.000000  -0.000000
  1.669390  89.214100  -1.766670  -1.265950 -18.719800  -6.339610   1.769030  10.389100  -1.573510   3.932240  20.718700  -3.568700  -0.636344   2.027880   0.016561  -1.046540   4.108620   1.241760  -9.103230  -5.568990   7.142970 -59.863300   8.293560 -42.025200   2.265250 -14.711400 -75.064500 -27.318600 -59.822500 -22.604900  63.267200  46.873200 -82.365700 -20.682400   0.124461   0.047023  -5.341230   0.078284  -0.118917 -24.870100  -1.260380   2.929730 -20.337500   0.121768  -0.031041 -14.236200   0.087801   0.001158 -52.372300  -3.326100   2.480140 -53.096900   0.013502   0.016780 -39.678400  -0.006123  -0.022963 -36.007400  -5.454950   7.309810 -53.823800  -0.019253  -0.007569 -36.060300  -0.020464  -0.034110 -27.652200 -12.172600  21.906100 -45.073400   0.101072   0.022056 -30.018900   0.050152   0.047161   8.651620  -2.579890  13.606000  58.016600   7.924030  46.052700  -8.793180 -15.665500  67.153700  31.297500 -60.701000  34.103400 -51.137000  42.415100  85.203200   6.304020   0.038473  -0.004139  -1.847960   0.014325   0.044525  27.254600   4.357410   8.468760  22.482300  -0.075407  -0.001430  15.737600  -0.049657   0.015652  68.221900  -1.474430  -0.391573  68.426300  -0.021089   0.337872  51.259200   0.175344   0.171386  66.639400  -5.829220  -2.331300  66.935400  -0.034992   0.287660  50.151700   0.138680   0.157299  25.201200  -5.919850 -12.405000  38.727100  -0.000066   0.000076  25.792200   0.000000   0.000074   0.911949  19.628700   2.174160  -0.882545   3.664600  16.296700  -2.162180  -4.918330   5.204270   0.000000   0.000000   0.000000  -3.096190  11.653300  -1.488500  -3.660920  14.711500 -10.516900   4.040360  -8.143020   2.857520   0.000000   0.000000   0.000000
  1.525640  89.240400  -1.731110  -1.206000 -18.221900  -5.902850   1.741790  10.169900  -1.576330   3.865170  20.281400  -3.557620  -0.721868   1.709600   0.016501  -1.188650   3.463780   1.695670  -8.992890  -5.488860   7.214260 -59.158300   8.517760 -40.011000   4.417690 -12.865600 -74.732600 -21.521100 -57.057000 -18.121700  57.836100  44.886000 -78.044600 -20.941200   0.139835   0.052007  -5.470630   0.086854  -0.124473 -26.833100  -1.604010   3.266330 -21.953800   0.096400  -0.016777 -15.367600   0.068366   0.009235 -50.507300  -3.351620   2.678710 -53.686100   0.007091   0.009827 -39.701900  -0.004680  -0.010856 -35.211300  -5.296180   7.407560 -53.567500  -0.020509  -0.009119 -35.600100  -0.013310  -0.020337 -28.834700 -12.310700  21.169900 -46.753300   0.087060   0.028996 -31.137800   0.039621   0.045881   8.801250  -2.531960  13.593700  57.411100   7.858650  43.782800  -9.737970 -14.462700  65.673100  28.583800 -58.667600  31.367800 -51.663200  42.339600  84.917100   8.468540   0.038070  -0.005838  -0.765724   0.014659   0.041446  26.382300   3.558280   7.192940  21.697600  -0.073247  -0.001391  15.188400  -0.048771   0.013340  65.638300  -2.284800  -0.719167  63.438300  -0.015592   0.238915  48.119400   0.140538   0.158799  64.329700  -6.304780  -2.743200  62.485500  -0.024447   0.204938  47.363400   0.112110   0.145290  25.154600  -6.124880 -12.786300  38.716300  -0.016578   0.006411  25.785000  -0.008116   0.008605   1.162190  19.160600   2.080870  -0.862051   3.569200  16.139400  -2.247380  -4.812670   4.988580  -0.000000   0.000000  -0.000000  -2.930780  11.503700  -1.486920  -3.514580  14.251800 -10.797800   3.949630  -8.078500   2.630950  -0.000000   0.000000   0.000000
